Coordinates
version=1
nRows=12
nColumns=24
inDegrees=yes

Units are S.I. units (second, meters, Newtons, ...)
Angles are in degrees.

endheader
time	pelvis_tilt	pelvis_list	pelvis_rotation	pelvis_tx	pelvis_ty	pelvis_tz	hip_flexion_r	hip_adduction_r	hip_rotation_r	knee_angle_r	ankle_angle_r	subtalar_angle_r	mtp_angle_r	hip_flexion_l	hip_adduction_l	hip_rotation_l	knee_angle_l	ankle_angle_l	subtalar_angle_l	mtp_angle_l	lumbar_extension	lumbar_bending	lumbar_rotation
      3.83000000	     -8.92788913	     -1.44896973	     -7.52900322	     -0.97481237	     -0.04041776	     -0.23342984	     -7.71692309	      2.90856969	      3.57742879	    -19.64700868	      4.36891194	     16.44055564	     22.33527110	     37.30660414	     -3.36288304	     -3.47002275	    -14.01395783	      3.99935303	     15.45015663	    -12.20092298	      8.90752295	      3.28131868	      5.98806867
      3.83500000	     -8.91954970	     -1.21782896	     -7.71935519	     -0.96663749	     -0.04175502	     -0.23336824	     -7.72222262	      2.46792444	      3.31515303	    -20.54755575	      3.83248872	     17.13029926	     23.21779116	     37.37122324	     -3.13964424	     -3.41817153	    -14.89555157	      3.00100829	     14.71820185	    -11.41467139	      9.05183298	      2.92357859	      6.07231772
      3.84000000	     -8.90702968	     -1.00552041	     -7.90050361	     -0.95852359	     -0.04293879	     -0.23334650	     -7.71210047	      2.03269250	      3.07832736	    -21.43607503	      3.09808746	     17.87486309	     24.28179976	     37.42682540	     -2.93432417	     -3.36202960	    -15.76224410	      1.77013232	     13.91471232	    -10.44649224	      9.17468870	      2.58286734	      6.13121430
      3.84500000	     -8.96094925	     -0.72545152	     -8.06229123	     -0.95048564	     -0.04415228	     -0.23333741	     -7.54846244	      1.52697278	      2.78608508	    -22.46790163	      2.47782934	     18.73512382	     25.08507617	     37.60867676	     -2.67695859	     -3.40337551	    -16.74138501	      0.63491020	     13.14926858	    -10.01830761	      9.35710509	      2.16066489	      6.15120060
      3.85000000	     -8.99205223	     -0.38620673	     -8.10026583	     -0.94223029	     -0.04516880	     -0.23345144	     -7.45164295	      0.94489802	      2.31172749	    -23.34590516	      1.45112520	     19.45866427	     26.52251510	     37.74604113	     -2.27913716	     -3.35392834	    -17.64283444	     -0.80230833	     12.14137580	     -9.12737107	      9.56472358	      1.64472887	      6.08844940
      3.85500000	     -9.08406966	     -0.08439742	     -8.18348569	     -0.93423230	     -0.04614594	     -0.23356770	     -7.17255675	      0.38101954	      1.81700269	    -24.42711320	      0.48766194	     20.47185396	     27.50575231	     37.99808224	     -1.96035791	     -3.31587619	    -18.66544890	     -1.98776516	     11.26535445	     -8.86617252	      9.78282035	      1.18911576	      6.05760191
      3.86000000	     -9.16214503	      0.25232954	     -8.21916171	     -0.92621788	     -0.04697393	     -0.23375790	     -6.89095868	     -0.23428966	      1.28320610	    -25.48382114	     -0.69103472	     21.45162779	     28.75526469	     38.23909811	     -1.56670285	     -3.21220214	    -19.69442342	     -3.15726711	     10.26777143	     -8.68963455	      9.99109222	      0.68711853	      5.99691865
      3.86500000	     -9.32167921	      0.67977193	     -8.31878228	     -0.91806995	     -0.04771962	     -0.23380977	     -6.47004409	     -0.93718107	      0.88196024	    -26.61391389	     -1.93085566	     22.42342816	     29.56579970	     38.55060718	     -1.15604570	     -3.26601997	    -20.74174634	     -4.09306524	      9.39807969	     -8.80385961	     10.33180639	      0.11012658	      6.04728759
      3.87000000	     -9.31059187	      1.02897260	     -8.22428898	     -0.91006486	     -0.04823226	     -0.23414047	     -6.26134379	     -1.59547197	      0.19327326	    -27.56887886	     -3.76822221	     23.10829660	     31.90001346	     38.69089771	     -0.63803943	     -2.97918527	    -21.77477824	     -5.04426169	      8.37380694	     -8.75194453	     10.43121660	     -0.44762084	      5.88686636
      3.87500000	     -9.46619392	      1.39836683	     -8.23464268	     -0.90208619	     -0.04885589	     -0.23435363	     -5.75449664	     -2.25969736	     -0.28360411	    -28.82861145	     -5.22458771	     24.16130091	     32.42763947	     39.01585475	     -0.19953204	     -2.83851895	    -22.88009544	     -5.63176810	      7.55662462	     -9.00850103	     10.72403850	     -0.97275364	      5.86226319
      3.88000000	     -9.45782971	      1.73592615	     -8.15303155	     -0.89414896	     -0.04923376	     -0.23476025	     -5.44479434	     -2.92149081	     -0.84785600	    -29.93765243	     -7.18462462	     24.89439283	     34.08042531	     39.12620070	      0.34685783	     -2.42535720	    -23.93489712	     -6.04905473	      6.56461824	     -9.43385240	     10.81196008	     -1.48812192	      5.72472923
      3.88500000	     -9.58874975	      2.16907525	     -8.14173888	     -0.88608982	     -0.04972478	     -0.23496165	     -4.89000095	     -3.65529196	     -1.26199292	    -31.26461964	     -8.91834963	     25.69235027	     34.52641856	     39.35990814	      0.87259697	     -2.30589912	    -24.97112452	     -6.21380783	      5.94453959	     -9.62252816	     11.10549241	     -2.07545253	      5.70857488
